<?xml version="1.0" standalone="no"?>
<!DOCTYPE svg PUBLIC "-//W3C//DTD SVG 20010904//EN"
 "http://www.w3.org/TR/2001/REC-SVG-20010904/DTD/svg10.dtd">
<svg version="1.0" xmlns="http://www.w3.org/2000/svg"
 width="372.000000pt" height="372.000000pt" viewBox="0 0 372.000000 372.000000"
 preserveAspectRatio="xMidYMid meet">
<metadata>
Created by potrace 1.14, written by Peter Selinger 2001-2017
</metadata>
<g transform="translate(0.000000,372.000000) scale(0.100000,-0.100000)"
fill="#000000" stroke="none">
<path d="M1795 3363 c-22 -2 -193 -30 -380 -63 -187 -33 -482 -82 -655 -110
-173 -28 -335 -58 -360 -66 -56 -18 -96 -53 -115 -99 -20 -47 -19 -126 14
-1177 28 -874 30 -899 51 -943 31 -64 71 -81 470 -210 184 -59 506 -168 715
-243 l380 -136 87 2 88 2 307 141 c170 78 452 202 628 276 402 170 388 162
414 217 24 48 19 -46 76 1479 23 635 24 622 -47 678 -52 40 -121 55 -463 99
-176 23 -498 66 -715 96 -474 65 -445 62 -495 57z"/>
</g>
</svg>
